Coordinates
version=1
nRows=33
nColumns=34
inDegrees=no

Units are S.I. units (second, meters, Newtons, ...)
If the header above contains a line with 'inDegrees', this indicates whether rotational values are in degrees (yes) or radians (no).

endheader
time	pelvis_tilt	pelvis_list	pelvis_rotation	pelvis_tx	pelvis_ty	pelvis_tz	hip_flexion_r	hip_adduction_r	hip_rotation_r	knee_angle_r	ankle_angle_r	subtalar_angle_r	mtp_angle_r	hip_flexion_l	hip_adduction_l	hip_rotation_l	knee_angle_l	ankle_angle_l	subtalar_angle_l	mtp_angle_l	lumbar_extension	lumbar_bending	lumbar_rotation	arm_flex_r	arm_add_r	arm_rot_r	elbow_flex_r	pro_sup_r	arm_flex_l	arm_add_l	arm_rot_l	elbow_flex_l	pro_sup_l
0.46	-0.0743743	-0.038105	-0.0349655	0.39378	0.92591	-0.257297	-0.0453791	0.0588512	-0.425906	0.282373	0.47191	0.408178	-0.00372778	0.619029	-0.0739011	-0.1551	0.407783	0.220126	0.038432	-0.00756874	-0.0444609	0.0486325	0.100384	0.178065	-0.222489	-0.0851771	0.819603	1.63728	-0.236186	-0.0804623	-0.363486	0.43276	1.8355
0.47	-0.0741966	-0.0310253	-0.0430665	0.405703	0.924239	-0.257168	-0.0577649	0.0471748	-0.431282	0.28913	0.481548	0.415102	-0.00375551	0.608462	-0.0660812	-0.175602	0.344157	0.236649	0.0969981	-0.00752167	-0.0452807	0.0413788	0.109644	0.18608	-0.224575	-0.081577	0.833252	1.64244	-0.242684	-0.0818378	-0.365982	0.422446	1.83305
0.48	-0.0739574	-0.0239062	-0.0512634	0.417838	0.922512	-0.257093	-0.0699444	0.035081	-0.435709	0.2964	0.490315	0.419627	-0.00378324	0.597317	-0.0577254	-0.194253	0.285162	0.2519	0.151812	-0.00747458	-0.045666	0.0341288	0.118913	0.192799	-0.226731	-0.0776592	0.846595	1.64614	-0.248866	-0.0831843	-0.368272	0.412149	1.83118
0.49	-0.0734716	-0.016635	-0.0594333	0.430199	0.92076	-0.257071	-0.0822006	0.0224778	-0.439316	0.304021	0.498077	0.422616	-0.00381098	0.585842	-0.0488625	-0.210462	0.232349	0.265517	0.200667	-0.00742748	-0.0457598	0.0267084	0.12804	0.198192	-0.22886	-0.0734589	0.859579	1.64851	-0.254806	-0.0845142	-0.370549	0.402082	1.82977
0.5	-0.0725287	-0.00909218	-0.0674261	0.442802	0.919012	-0.257097	-0.0948764	0.00929328	-0.442243	0.311774	0.504677	0.424981	-0.00383871	0.574296	-0.0395769	-0.223891	0.18726	0.27717	0.241851	-0.00738036	-0.0457279	0.0189293	0.136849	0.202214	-0.230838	-0.0690471	0.872141	1.64975	-0.26058	-0.0858538	-0.372968	0.392473	1.82869
0.51	-0.0709431	-0.00115663	-0.0750641	0.455659	0.917292	-0.257168	-0.108311	-0.00452335	-0.44463	0.319406	0.509933	0.427562	-0.00386645	0.562952	-0.0299596	-0.234478	0.151244	0.286477	0.27424	-0.00733322	-0.0457167	0.0105984	0.145137	0.20481	-0.232526	-0.0645301	0.884211	1.65015	-0.266265	-0.0872399	-0.375646	0.383552	1.82782
0.52	-0.0686062	0.00728691	-0.0821437	0.468778	0.915617	-0.257283	-0.122784	-0.0190161	-0.446603	0.326679	0.513653	0.431033	-0.00389419	0.552077	-0.0200431	-0.242392	0.12525	0.292923	0.297314	-0.00728607	-0.045829	0.00151673	0.152687	0.205911	-0.233782	-0.0600482	0.895712	1.65	-0.27192	-0.0887152	-0.378655	0.375532	1.82707
0.53	-0.0654447	0.0163863	-0.0884363	0.482163	0.914033	-0.257453	-0.138462	-0.0342231	-0.448271	0.333411	0.515647	0.435807	-0.00392193	0.541917	-0.00976586	-0.24796	0.109677	0.295848	0.311094	-0.0072389	-0.0460905	-0.00849606	0.159281	0.205439	-0.234474	-0.0557729	0.906557	1.6496	-0.277571	-0.0903231	-0.382022	0.368591	1.82635
0.54	-0.0614889	0.0262534	-0.0937072	0.495812	0.912562	-0.257691	-0.155373	-0.0501728	-0.449693	0.339518	0.515718	0.441938	-0.00394968	0.532672	0.00104337	-0.251565	0.104307	0.294509	0.316034	-0.00719172	-0.0464708	-0.0196011	0.164716	0.203316	-0.234491	-0.0518994	0.916649	1.64919	-0.283205	-0.0921	-0.385733	0.362858	1.82562
0.55	-0.0568409	0.0369833	-0.0977279	0.509715	0.911223	-0.258015	-0.173393	-0.0668524	-0.450844	0.345045	0.513649	0.449029	-0.00397743	0.524479	0.0126274	-0.253557	0.108338	0.288228	0.312904	-0.00714452	-0.0468893	-0.0318949	0.168818	0.199472	-0.233753	-0.0486372	0.925873	1.649	-0.288759	-0.0940692	-0.389734	0.358403	1.82485
0.56	-0.0516602	0.0486223	-0.100302	0.523858	0.910035	-0.258448	-0.192238	-0.0841837	-0.451563	0.350196	0.509167	0.456138	-0.00400518	0.517396	0.0252465	-0.254196	0.120483	0.276603	0.302703	-0.00709732	-0.0472428	-0.0453894	0.171463	0.193856	-0.232207	-0.0461982	0.934094	1.64918	-0.294113	-0.0962379	-0.393937	0.355226	1.82403
0.57	-0.04614	0.0611431	-0.101291	0.538219	0.909014	-0.259011	-0.211486	-0.102003	-0.451515	0.355338	0.501908	0.461745	-0.00403293	0.51138	0.0391107	-0.253621	0.139131	0.25971	0.28658	-0.00705009	-0.0474374	-0.0599963	0.172603	0.186445	-0.22983	-0.0447816	0.941151	1.64987	-0.299101	-0.0985958	-0.398222	0.353264	1.82318
0.58	-0.0404767	0.0744349	-0.100636	0.552768	0.908184	-0.259721	-0.230591	-0.120054	-0.450175	0.360998	0.491369	0.463777	-0.00406069	0.506273	0.0543182	-0.251866	0.162531	0.238244	0.265773	-0.00700286	-0.0474161	-0.0755243	0.172272	0.177251	-0.226625	-0.0445551	0.946857	1.65111	-0.303514	-0.101116	-0.402454	0.352407	1.82234
0.59	-0.0348568	0.0882942	-0.0983776	0.567468	0.907568	-0.260583	-0.248901	-0.137996	-0.446848	0.367855	0.476881	0.459765	-0.00408845	0.50182	0.0708071	-0.248882	0.18897	0.213545	0.241553	-0.00695562	-0.0471602	-0.091679	0.170598	0.166336	-0.222617	-0.045631	0.950999	1.65292	-0.307129	-0.103752	-0.406496	0.352516	1.82159
0.6	-0.0294577	0.102424	-0.0946606	0.582274	0.907192	-0.261591	-0.265655	-0.155426	-0.440735	0.376706	0.457603	0.447134	-0.00411621	0.497707	0.0883417	-0.244565	0.216896	0.187469	0.21516	-0.00690836	-0.0466639	-0.108081	0.167792	0.153811	-0.217854	-0.0480397	0.953338	1.65524	-0.309733	-0.106437	-0.410236	0.353456	1.82103
0.61	-0.0244555	0.116466	-0.0897329	0.597138	0.907076	-0.262725	-0.279996	-0.171944	-0.431069	0.388441	0.432568	0.423619	-0.00414397	0.493602	0.106547	-0.238799	0.244976	0.162142	0.187726	-0.0068611	-0.0459011	-0.124304	0.164134	0.139846	-0.212405	-0.0517079	0.953613	1.65794	-0.311159	-0.109083	-0.413607	0.355122	1.82081
0.62	-0.0200348	0.130064	-0.0839289	0.612012	0.907232	-0.263952	-0.290994	-0.187236	-0.417269	0.403998	0.400774	0.387733	-0.00417174	0.489191	0.124979	-0.231496	0.272094	0.139619	0.160223	-0.00681382	-0.0447948	-0.139934	0.159943	0.124662	-0.206364	-0.0564458	0.951553	1.66088	-0.311304	-0.111584	-0.416595	0.357459	1.82107
0.63	-0.0163939	0.142923	-0.0776456	0.626848	0.907662	-0.265237	-0.29769	-0.201142	-0.399061	0.424304	0.36133	0.339133	-0.00419951	0.484213	0.143204	-0.222662	0.297306	0.121576	0.133449	-0.00676653	-0.043196	-0.15463	0.15556	0.108532	-0.199844	-0.0619465	0.946892	1.66388	-0.310152	-0.113825	-0.41923	0.360469	1.82194
0.64	-0.0137466	0.154852	-0.0713114	0.641602	0.90835	-0.266538	-0.299145	-0.213684	-0.376515	0.450185	0.313639	0.278684	-0.00422729	0.478487	0.160851	-0.21247	0.319806	0.109079	0.108066	-0.00671923	-0.0408774	-0.168163	0.151315	0.091772	-0.192977	-0.0678003	0.939386	1.66679	-0.307768	-0.1157	-0.421565	0.364215	1.82349
0.65	-0.012315	0.165777	-0.0653536	0.656235	0.909267	-0.26781	-0.294508	-0.225032	-0.349987	0.482265	0.257617	0.208335	-0.00425507	0.471938	0.177637	-0.201295	0.338917	0.102492	0.084656	-0.00667192	-0.0375502	-0.180435	0.147508	0.0747247	-0.185908	-0.073519	0.928843	1.66945	-0.304292	-0.117122	-0.423644	0.368809	1.82571
0.66	-0.0123106	0.175722	-0.0601671	0.670711	0.910371	-0.269014	-0.283103	-0.235448	-0.320047	0.520874	0.193903	0.130899	-0.00428286	0.464597	0.193368	-0.189716	0.354112	0.101522	0.0637562	-0.0066246	-0.032905	-0.191468	0.14438	0.0577484	-0.178784	-0.0785686	0.915139	1.67176	-0.299919	-0.118042	-0.425486	0.374401	1.82848
0.67	-0.0139043	0.184792	-0.0560836	0.684995	0.911611	-0.270115	-0.264517	-0.245208	-0.287394	0.565967	0.124046	0.0497933	-0.00431065	0.456587	0.207922	-0.178451	0.365055	0.105375	0.0458667	-0.00657727	-0.0266733	-0.201372	0.142087	0.0412001	-0.171756	-0.0824049	0.898244	1.6736	-0.294872	-0.118452	-0.427066	0.381164	1.83155
0.68	-0.017186	0.193132	-0.0533447	0.699057	0.912929	-0.271084	-0.238679	-0.254529	-0.252785	0.617085	0.0505928	-0.0312427	-0.00433844	0.448085	0.221224	-0.168255	0.371639	0.11297	0.031424	-0.00652993	-0.0186928	-0.210297	0.140678	0.0254196	-0.164962	-0.0845135	0.878228	1.67487	-0.289376	-0.118389	-0.428312	0.389272	1.83457
0.69	-0.0221256	0.200886	-0.0520829	0.712872	0.914273	-0.271901	-0.205901	-0.263516	-0.216988	0.673365	-0.0229762	-0.108437	-0.00436624	0.439271	0.233227	-0.159806	0.374015	0.12315	0.0207593	-0.00648259	-0.00896424	-0.218391	0.140085	0.0107144	-0.15853	-0.0844537	0.855265	1.67546	-0.283629	-0.117936	-0.4291	0.398873	1.83715
0.7	-0.0285525	0.208158	-0.0523138	0.726418	0.915601	-0.272555	-0.16688	-0.272137	-0.180756	0.733595	-0.0924965	-0.178295	-0.00439404	0.430282	0.243899	-0.153599	0.372574	0.134869	0.0140565	-0.00643524	0.00231629	-0.225758	0.140116	-0.00265764	-0.152561	-0.0819071	0.829631	1.67526	-0.277775	-0.117208	-0.429253	0.410049	1.83889
0.71	-0.036162	0.214984	-0.053938	0.739678	0.916887	-0.273046	-0.122644	-0.280226	-0.144805	0.796306	-0.153565	-0.237897	-0.00442185	0.421179	0.253213	-0.149882	0.367902	0.147294	0.0113211	-0.00638789	0.014761	-0.232441	0.140481	-0.0145057	-0.147133	-0.0767266	0.80169	1.67417	-0.271888	-0.11635	-0.428534	0.422786	1.83947
0.72	-0.0445528	0.221325	-0.0567547	0.752643	0.918117	-0.273378	-0.0744399	-0.287513	-0.10981	0.859886	-0.202122	-0.285177	-0.00444966	0.41194	0.261151	-0.148625	0.360705	0.159847	0.0123645	-0.00634052	0.0278337	-0.238407	0.140814	-0.0247243	-0.142288	-0.0689795	0.771881	1.67215	-0.26596	-0.115522	-0.426655	0.436951	1.83875
0.73	-0.0532824	0.22707	-0.0604846	0.765312	0.919288	-0.273568	-0.0236078	-0.293675	-0.0763871	0.9227	-0.235055	-0.319101	-0.00447747	0.402471	0.267709	-0.149535	0.351713	0.172183	0.0168049	-0.00629316	0.04092	-0.243559	0.140723	-0.0333094	-0.138033	-0.0589752	0.740712	1.66925	-0.259906	-0.114888	-0.423299	0.452286	1.83678
0.74	-0.0619273	0.232071	-0.0648013	0.777688	0.920409	-0.273639	0.0285479	-0.298393	-0.0450796	0.983188	-0.250683	-0.33974	-0.00450529	0.392636	0.272915	-0.152108	0.341594	0.184132	0.0240893	-0.00624578	0.0534084	-0.247763	0.139838	-0.0403694	-0.134343	-0.0472658	0.708742	1.66564	-0.253581	-0.114602	-0.418165	0.468439	1.83388
0.75	-0.0701281	0.236166	-0.0693655	0.789785	0.921492	-0.273623	0.0808584	-0.301398	-0.0163332	1.03994	-0.249006	-0.348179	-0.0045331	0.382274	0.276831	-0.155704	0.330879	0.195628	0.0335369	-0.00619841	0.0647607	-0.250871	0.137853	-0.0461246	-0.131166	-0.0346167	0.676572	1.66159	-0.246803	-0.114796	-0.411012	0.485009	1.83053
0.76	-0.0776308	0.239226	-0.0738622	0.801616	0.922537	-0.273555	0.132352	-0.302511	0.00952398	1.09178	-0.231642	-0.34632	-0.00456092	0.371221	0.279559	-0.159627	0.319926	0.206658	0.0444038	-0.00615103	0.0745551	-0.252747	0.13456	-0.0508943	-0.128437	-0.0219419	0.644823	1.65744	-0.239386	-0.115569	-0.401714	0.501614	1.82737
0.77	-0.0842708	0.241148	-0.0780247	0.813207	0.923566	-0.273466	0.182283	-0.301656	0.0322989	1.13773	-0.201488	-0.336578	-0.00458875	0.359327	0.281233	-0.163221	0.308919	0.217225	0.055962	-0.00610364	0.0825186	-0.253295	0.129867	-0.0550686	-0.126089	-0.0102131	0.61412	1.65359	-0.231161	-0.116974	-0.390289	0.517942	1.82503
0.78	-0.0899667	0.241877	-0.0816596	0.82459	0.924595	-0.273383	0.230123	-0.298863	0.0519386	1.17713	-0.162187	-0.321558	-0.00461657	0.346461	0.282002	-0.165947	0.29789	0.227335	0.0675819	-0.00605626	0.0885186	-0.252468	0.123798	-0.059071	-0.12407	-0.000352463	0.585054	1.6504	-0.222005	-0.119022	-0.376909	0.533792	1.82404
